<svg xmlns="http://www.w3.org/2000/svg" width="320" height="320" viewBox="0 0 320 320">
  <defs>
    <linearGradient id="sky" x1="0" x2="1" y1="0" y2="1">
      <stop offset="0" stop-color="#7bbde5"/>
      <stop offset="1" stop-color="#d7edf8"/>
    </linearGradient>
  </defs>
  <rect width="320" height="320" fill="url(#sky)"/>
  <g fill="none" stroke="#ffffff" stroke-width="2" stroke-linecap="round" stroke-linejoin="round" opacity=".35">
    <path d="m44 63 57-22-18 70-16-25-23 19 9-28Z"/>
    <path d="M214 48h57v37h-39l-18 16V85h-1a12 12 0 0 1-12-12V60a12 12 0 0 1 13-12Z"/>
    <path d="M58 161h52M58 178h34"/>
    <path d="M205 156c18-9 39-2 48 15s2 39-15 48-39 2-48-15"/>
    <path d="m220 178 26 7-21 17"/>
    <path d="M54 260c10-18 36-18 46 0"/>
    <path d="M72 230h10l4 16h-18Z"/>
    <path d="M222 260h40M222 278h28"/>
  </g>
  <g fill="#ffffff" opacity=".22">
    <circle cx="150" cy="45" r="5"/>
    <circle cx="292" cy="116" r="4"/>
    <circle cx="141" cy="137" r="3"/>
    <circle cx="29" cy="211" r="4"/>
    <circle cx="174" cy="276" r="5"/>
    <circle cx="287" cy="282" r="3"/>
  </g>
  <g fill="#2aabee" opacity=".16">
    <circle cx="169" cy="92" r="24"/>
    <circle cx="102" cy="214" r="18"/>
    <circle cx="280" cy="188" r="22"/>
  </g>
</svg>
