<svg width="158" height="40" viewBox="0 0 158 40" fill="none" xmlns="http://www.w3.org/2000/svg">
<path d="M19.9979 6.99582L19.9209 7.07284L16.0505 10.942L15.3223 11.6714L12.441 14.5517L12.4421 7.55689L16.4224 3.57547L16.5006 3.49846L17.4026 2.59524L19.9979 0L22.5701 2.57214L23.4963 3.49736L23.5734 3.57547L19.9979 6.99582Z" fill="#1313FF"></path>
<path d="M27.531 7.52973V14.5256L24.6728 11.6674L23.9435 10.938L23.8334 10.828L22.5694 9.56394L19.9972 6.99176L23.5727 3.57141L25.883 5.88171L27.531 7.52973Z" fill="#1313FF"></path>
<path d="M16.5003 36.4996L12.4419 32.4411V25.4454L15.245 28.2485L15.322 28.3266L16.2165 29.221L17.4024 30.407L19.9206 32.9242L19.9977 33.0023L16.5003 36.4996Z" fill="#1313FF"></path>
<path d="M27.5311 32.463L25.7169 34.2772L23.5727 36.4225L23.4957 36.4994L22.4593 37.5347L19.9972 39.998L16.4999 36.4994L20.0754 32.9251L22.4593 30.54L24.6729 28.3265L24.751 28.2495L27.5311 31.0295V32.463Z" fill="#1313FF"></path>
<path d="M15.2439 11.7459L17.4024 13.9044L19.9206 16.4215L19.9977 16.4997L22.5698 19.0718L23.4961 19.997L23.5731 20.0751L26.1067 22.6076L27.5315 24.0335V31.0292L13.9435 17.4414L12.4419 15.9385V14.5491L15.2439 11.7459Z" fill="#1313FF"></path>
<path d="M10.7935 9.20337V16.1981L9.44145 17.5502L7.07283 19.9188L6.99582 19.9958L7.07283 20.0739L10.7935 23.7935V30.7893L9.2236 29.2194L0 19.9969L2.44562 17.5502L3.49736 16.4985L3.57547 16.4214L5.73616 14.2596L5.84617 14.1496L8.17297 11.8228L8.25108 11.7458L9.05859 10.9383L9.16861 10.8282L10.7935 9.20337Z" fill="#215EBF"></path>
<path d="M10.7935 9.20337V16.1981L9.44145 17.5502L3.49736 23.4942L0 19.9958L3.57547 16.4214L5.73616 14.2596L5.84617 14.1496L8.17297 11.8228L8.25108 11.7458L9.05859 10.9383L9.16861 10.8282L10.7935 9.20337Z" fill="#1FB254"></path>
<path d="M6.99581 19.9999L7.07282 20.078L10.7935 23.7976V30.7935L9.22363 29.2236L3.49734 23.4984L6.99581 19.9999Z" fill="#27C76F"></path>
<path d="M39.9999 19.999L36.4244 23.5746L34.1294 25.8683L31.8258 28.1732L31.7488 28.2501L29.1832 30.8146V23.8198L30.5034 22.4997L32.9259 20.0771L36.5025 16.5017L39.9999 19.999Z" fill="#1FB254"></path>
<path d="M33.004 19.9972L29.1832 16.1764V9.18054L30.8312 10.8286L30.9413 10.9387L31.7488 11.745L31.8258 11.8232L34.2395 14.2369L36.4244 16.4207L36.5014 16.4988L33.004 19.9972Z" fill="#27C76F"></path>
<path d="M52.3824 18.504C53.7541 18.504 54.9239 18.988 55.8928 19.9568C56.8607 20.9256 57.3456 22.0955 57.3456 23.4672C57.3456 24.839 56.8607 26.0088 55.8928 26.9776C54.9239 27.9465 53.7541 28.4305 52.3824 28.4305H45L49.1777 25.0138H52.3824C52.8148 25.0138 53.1805 24.8643 53.4796 24.5653C53.7786 24.2663 53.9281 23.9005 53.9281 23.4681C53.9281 23.0356 53.7786 22.6699 53.4796 22.3709C53.1805 22.0719 52.814 21.9215 52.3824 21.9215H49.9632C48.5915 21.9215 47.4208 21.4375 46.4528 20.4687C45.484 19.5007 45 18.33 45 16.9583C45 15.5865 45.484 14.4183 46.4528 13.4537C47.4208 12.4891 48.5915 12.0068 49.9632 12.0068H57.3456L53.1553 15.4117H49.9632C49.5308 15.4117 49.1634 15.5612 48.8593 15.8602C48.5561 16.1592 48.404 16.5258 48.404 16.9574C48.404 17.389 48.5552 17.7556 48.8593 18.0546C49.1625 18.3536 49.5308 18.504 49.9632 18.504H52.3824Z" fill="#0F0F49"></path>
<path d="M63.2928 13.104C64.5108 12.3683 65.8344 12 67.2644 12C68.6945 12 70.018 12.3683 71.236 13.104C72.454 13.8397 73.4186 14.8398 74.129 16.1034C74.8402 17.367 75.1949 18.7387 75.1949 20.2186C75.1949 21.6984 74.8394 23.0701 74.129 24.3338C73.4178 25.5974 72.454 26.5975 71.236 27.3332C70.018 28.0689 68.6936 28.4372 67.2644 28.4372C65.8353 28.4372 64.5099 28.0689 63.2928 27.3332C62.0748 26.5975 61.1127 25.6 60.4058 24.3405C59.6987 23.0811 59.3457 21.7077 59.3457 20.2194C59.3457 18.7311 59.6987 17.3577 60.4058 16.0983C61.1119 14.8389 62.0748 13.8414 63.2928 13.1057V13.104ZM64.0724 23.6099C64.9534 24.5492 66.0177 25.0188 67.2653 25.0188C68.5128 25.0188 69.5763 24.5492 70.4572 23.6099C71.3382 22.6707 71.7792 21.5397 71.7792 20.2177C71.7792 18.8959 71.3382 17.7657 70.4572 16.8256C69.5763 15.8863 68.512 15.4167 67.2653 15.4167C66.0185 15.4167 64.9542 15.8863 64.0724 16.8256C63.1915 17.7649 62.7506 18.8959 62.7506 20.2177C62.7506 21.5397 63.1915 22.6707 64.0724 23.6099Z" fill="#0F0F49"></path>
<path d="M77.1953 12.0068H89.1299V15.4117H80.6002V28.4305H77.1953V12.0068ZM88.4063 21.9207H81.6349V18.5167H88.4063V21.9207Z" fill="#0F0F49"></path>
<path d="M96.3428 16.2565V28.4306H99.7592V16.2565H96.3428ZM91.1299 12.0078V15.4118H104.648V12.0078H91.1299Z" fill="#0F0F49"></path>
<path d="M110.053 28.4305H106.647V12.0068H110.053V28.4305Z" fill="#0F0F49"></path>
<path d="M115.681 12.0078H112.053L117.629 23.4268L119.599 19.5971L115.681 12.0078ZM124.455 12.0078L118.091 24.3737L120.071 28.4306L128.09 12.0078H124.455Z" fill="#0F0F49"></path>
<path d="M139.281 12.0068H142.686V22.1327C142.686 23.8702 142.07 25.3542 140.84 26.5849C139.61 27.8155 138.125 28.4305 136.388 28.4305C134.65 28.4305 133.167 27.8155 131.936 26.5849C130.705 25.3542 130.09 23.871 130.09 22.1327V12.0068H133.495V22.1327C133.495 22.9309 133.777 23.6108 134.343 24.1717C134.908 24.7325 135.59 25.013 136.388 25.013C137.186 25.013 137.867 24.7325 138.433 24.1717C138.998 23.6108 139.281 22.9309 139.281 22.1327V12.0068Z" fill="#0F0F49"></path>
<path d="M152.068 18.504C153.44 18.504 154.61 18.988 155.579 19.9568C156.547 20.9256 157.031 22.0955 157.031 23.4672C157.031 24.839 156.547 26.0088 155.579 26.9776C154.61 27.9465 153.44 28.4305 152.068 28.4305H144.686L148.863 25.0138H152.068C152.5 25.0138 152.866 24.8643 153.165 24.5653C153.464 24.2663 153.614 23.9005 153.614 23.4681C153.614 23.0356 153.464 22.6699 153.165 22.3709C152.866 22.0719 152.5 21.9215 152.068 21.9215H149.649C148.277 21.9215 147.106 21.4375 146.138 20.4687C145.17 19.5007 144.686 18.33 144.686 16.9583C144.686 15.5865 145.17 14.4183 146.138 13.4537C147.106 12.4891 148.277 12.0068 149.649 12.0068H157.031L152.841 15.4117H149.649C149.216 15.4117 148.849 15.5612 148.545 15.8602C148.241 16.1592 148.09 16.5258 148.09 16.9574C148.09 17.389 148.241 17.7556 148.545 18.0546C148.848 18.3536 149.216 18.504 149.649 18.504H152.068Z" fill="#0F0F49"></path>
</svg>