<svg width="40" height="40" viewBox="0 0 40 40" fill="none" xmlns="http://www.w3.org/2000/svg">
<path d="M19.9979 6.99582L19.9209 7.07284L16.0505 10.942L15.3223 11.6714L12.441 14.5517L12.4421 7.55689L16.4224 3.57547L16.5006 3.49846L17.4026 2.59524L19.9979 0L22.5701 2.57214L23.4963 3.49736L23.5734 3.57547L19.9979 6.99582Z" fill="#1313FF"></path>
<path d="M27.531 7.52973V14.5256L24.6728 11.6674L23.9435 10.938L23.8334 10.828L22.5694 9.56394L19.9972 6.99176L23.5727 3.57141L25.883 5.88171L27.531 7.52973Z" fill="#1313FF"></path>
<path d="M16.5003 36.4996L12.4419 32.4411V25.4454L15.245 28.2485L15.322 28.3266L16.2165 29.221L17.4024 30.407L19.9206 32.9242L19.9977 33.0023L16.5003 36.4996Z" fill="#1313FF"></path>
<path d="M27.5311 32.463L25.7169 34.2772L23.5727 36.4225L23.4957 36.4994L22.4593 37.5347L19.9972 39.998L16.4999 36.4994L20.0754 32.9251L22.4593 30.54L24.6729 28.3265L24.751 28.2495L27.5311 31.0295V32.463Z" fill="#1313FF"></path>
<path d="M15.2439 11.7459L17.4024 13.9044L19.9206 16.4215L19.9977 16.4997L22.5698 19.0718L23.4961 19.997L23.5731 20.0751L26.1067 22.6076L27.5315 24.0335V31.0292L13.9435 17.4414L12.4419 15.9385V14.5491L15.2439 11.7459Z" fill="#1313FF"></path>
<path d="M10.7935 9.20337V16.1981L9.44145 17.5502L7.07283 19.9188L6.99582 19.9958L7.07283 20.0739L10.7935 23.7935V30.7893L9.2236 29.2194L0 19.9969L2.44562 17.5502L3.49736 16.4985L3.57547 16.4214L5.73616 14.2596L5.84617 14.1496L8.17297 11.8228L8.25108 11.7458L9.05859 10.9383L9.16861 10.8282L10.7935 9.20337Z" fill="#215EBF"></path>
<path d="M10.7935 9.20337V16.1981L9.44145 17.5502L3.49736 23.4942L0 19.9958L3.57547 16.4214L5.73616 14.2596L5.84617 14.1496L8.17297 11.8228L8.25108 11.7458L9.05859 10.9383L9.16861 10.8282L10.7935 9.20337Z" fill="#1FB254"></path>
<path d="M6.99581 19.9999L7.07282 20.078L10.7935 23.7976V30.7935L9.22363 29.2236L3.49734 23.4984L6.99581 19.9999Z" fill="#27C76F"></path>
<path d="M39.9999 19.999L36.4244 23.5746L34.1294 25.8683L31.8258 28.1732L31.7488 28.2501L29.1832 30.8146V23.8198L30.5034 22.4997L32.9259 20.0771L36.5025 16.5017L39.9999 19.999Z" fill="#1FB254"></path>
<path d="M33.004 19.9972L29.1832 16.1764V9.18054L30.8312 10.8286L30.9413 10.9387L31.7488 11.745L31.8258 11.8232L34.2395 14.2369L36.4244 16.4207L36.5014 16.4988L33.004 19.9972Z" fill="#27C76F"></path>
</svg>